<svg width="74" height="87" viewBox="0 0 74 87" fill="none" xmlns="http://www.w3.org/2000/svg">
<g clip-path="url(#clip0)">
<path d="M64.9394 43.9468L61.7889 40.7713C66.7581 35.7857 69.5498 29.0239 69.5498 21.9734C69.5498 14.9229 66.7581 8.16109 61.7889 3.17545L64.9394 0C70.7447 5.82963 74.0056 13.733 74.0056 21.9734C74.0056 30.2138 70.7447 38.1171 64.9394 43.9468ZM56.3123 35.2844L59.4775 38.4599C63.8291 34.0838 66.273 28.1548 66.273 21.9734C66.273 15.792 63.8291 9.86299 59.4775 5.48689L56.3123 8.66234C59.826 12.1954 61.7994 16.9825 61.7994 21.9734C61.7994 26.9643 59.826 31.7514 56.3123 35.2844ZM53.839 32.7958C56.6992 29.925 58.3059 26.0323 58.3059 21.9734C58.3059 17.9145 56.6992 14.0217 53.839 11.151L50.6885 14.3117C52.7081 16.3438 53.8422 19.0964 53.8422 21.966C53.8422 24.8356 52.7081 27.5882 50.6885 29.6203L53.839 32.7958ZM12.2273 3.17545L9.06212 0C3.2604 5.83155 0.00195312 13.7342 0.00195312 21.9734C0.00195312 30.2126 3.2604 38.1152 9.06212 43.9468L12.2126 40.7713C7.24337 35.7857 4.4517 29.0239 4.4517 21.9734C4.4517 14.9229 7.24337 8.16109 12.2126 3.17545H12.2273ZM14.5313 38.4599L17.6966 35.2844C14.194 31.7529 12.2278 26.9737 12.2278 21.9919C12.2278 17.01 14.194 12.2308 17.6966 8.69926L14.5313 5.52381C10.1797 9.89991 7.73586 15.8289 7.73586 22.0103C7.73586 28.1917 10.1797 34.1207 14.5313 38.4968V38.4599ZM20.1698 32.7958L23.3351 29.6203C21.3155 27.5882 20.1814 24.8356 20.1814 21.966C20.1814 19.0964 21.3155 16.3438 23.3351 14.3117L20.1698 11.151C17.3133 14.0236 15.709 17.9157 15.709 21.9734C15.709 26.0311 17.3133 29.9231 20.1698 32.7958ZM55.2081 77.6656H44.3065L37.792 30.3662C39.3508 30.1653 40.7749 29.3766 41.7748 28.1602C42.7747 26.9438 43.2753 25.3911 43.175 23.8176C43.0747 22.2442 42.381 20.7681 41.2348 19.6894C40.0886 18.6107 38.576 18.0103 37.0044 18.0103C35.4328 18.0103 33.9202 18.6107 32.774 19.6894C31.6278 20.7681 30.9341 22.2442 30.8338 23.8176C30.7335 25.3911 31.2342 26.9438 32.2341 28.1602C33.234 29.3766 34.658 30.1653 36.2168 30.3662L29.695 77.6656H18.8081C17.5742 77.6656 16.3909 78.1574 15.5185 79.0326C14.6461 79.9079 14.1559 81.095 14.1559 82.3328C14.1559 83.5706 14.6461 84.7578 15.5185 85.633C16.3909 86.5083 17.5742 87 18.8081 87H55.2081C56.442 87 57.6253 86.5083 58.4977 85.633C59.3702 84.7578 59.8603 83.5706 59.8603 82.3328C59.8603 81.095 59.3702 79.9079 58.4977 79.0326C57.6253 78.1574 56.442 77.6656 55.2081 77.6656Z" fill="#39B54A"/>
</g>
<defs>
<clipPath id="clip0">
<rect width="74" height="87" fill="white"/>
</clipPath>
</defs>
</svg>
